<svg width="88" height="16" fill="none" xmlns="http://www.w3.org/2000/svg"><path d="M8 0l1.796 5.528h5.813l-4.703 3.416 1.796 5.528L8 11.056l-4.702 3.416 1.796-5.528L.392 5.528h5.812L8 0zm18 0l1.796 5.528h5.813l-4.703 3.416 1.796 5.528L26 11.056l-4.702 3.416 1.796-5.528-4.703-3.416h5.813L26 0zm18 0l1.796 5.528h5.813l-4.703 3.416 1.796 5.528L44 11.056l-4.702 3.416 1.796-5.528-4.703-3.416h5.813L44 0zm18 0l1.796 5.528h5.813l-4.703 3.416 1.796 5.528L62 11.056l-4.702 3.416 1.796-5.528-4.703-3.416h5.813L62 0zm18 0l1.796 5.528h5.813l-4.703 3.416 1.796 5.528L80 11.056l-4.702 3.416 1.796-5.528-4.703-3.416h5.813L80 0z" fill="#AC0000"/></svg>